<?xml version="1.0" standalone="no"?>
<!DOCTYPE svg PUBLIC "-//W3C//DTD SVG 20010904//EN"
 "http://www.w3.org/TR/2001/REC-SVG-20010904/DTD/svg10.dtd">
<svg version="1.0" xmlns="http://www.w3.org/2000/svg"
 width="24.000000pt" height="24.000000pt" viewBox="0 0 24.000000 24.000000"
 preserveAspectRatio="xMidYMid meet">

<g transform="translate(0.000000,24.000000) scale(0.100000,-0.100000)"
fill="#00ff0000" stroke="none">
<path d="M55 185 c-19 -18 -25 -35 -25 -65 0 -56 34 -90 90 -90 56 0 90 34 90
90 0 56 -34 90 -90 90 -30 0 -47 -6 -65 -25z m80 -45 c18 -20 18 -21 -3 -42
-24 -24 -43 -18 -22 7 10 12 10 19 2 27 -7 7 -12 16 -12 20 0 14 16 8 35 -12z"/>
</g>
</svg>